<svg width="21" height="21" viewBox="0 0 21 21" fill="none" xmlns="http://www.w3.org/2000/svg">
<path fill-rule="evenodd" clip-rule="evenodd" d="M0.25 0.25V0.531245V4.375V8.21876V8.5L0.531245 8.5H4.375H8.21876H8.5L8.5 8.21876V4.375V0.531245L8.5 0.25L8.21876 0.25H4.375H0.531245L0.25 0.25ZM7.58333 4.375V7.58333H4.375H1.16667V4.375V1.16667H4.375H7.58333V4.375Z" fill="#151718" stroke="#151718" stroke-width="0.5"/>
<path fill-rule="evenodd" clip-rule="evenodd" d="M0.25 11.9961V12.2773V16.1211V19.9648V20.2461L0.531245 20.2461H4.375H8.21876H8.5L8.5 19.9648V16.1211V12.2773L8.5 11.9961L8.21876 11.9961H4.375H0.531245L0.25 11.9961ZM7.58333 16.1211V19.3294H4.375H1.16667V16.1211V12.9128H4.375H7.58333V16.1211Z" fill="#151718" stroke="#151718" stroke-width="0.5"/>
<path fill-rule="evenodd" clip-rule="evenodd" d="M11.9951 0.25V0.531245V4.375V8.21876V8.5L12.2764 8.5H16.1201H19.9639H20.2451L20.2451 8.21876V4.375V0.531245L20.2451 0.25L19.9639 0.25H16.1201H12.2764L11.9951 0.25ZM19.3285 4.375V7.58333H16.1201H12.9118V4.375V1.16667H16.1201H19.3285V4.375Z" fill="#151718" stroke="#151718" stroke-width="0.5"/>
<path fill-rule="evenodd" clip-rule="evenodd" d="M11.9951 11.9961V12.2773V16.1211V19.9648V20.2461L12.2764 20.2461H16.1201H19.9639H20.2451L20.2451 19.9648V16.1211V12.2773L20.2451 11.9961L19.9639 11.9961H16.1201H12.2764L11.9951 11.9961ZM19.3285 16.1211V19.3294H16.1201H12.9118V16.1211V12.9128H16.1201H19.3285V16.1211Z" fill="#151718" stroke="#151718" stroke-width="0.5"/>
</svg>
