<svg width="20" height="21" viewBox="0 0 20 21" fill="none" xmlns="http://www.w3.org/2000/svg">
<g opacity="0.7">
<path d="M4.16633 17.5013C4.16633 17.5013 2.99966 17.5013 2.99966 16.3347C2.99966 15.168 4.16633 11.668 9.99966 11.668C15.833 11.668 16.9997 15.168 16.9997 16.3347C16.9997 17.5013 15.833 17.5013 15.833 17.5013H4.16633ZM9.99966 10.5013C10.9279 10.5013 11.8182 10.1326 12.4745 9.47622C13.1309 8.81984 13.4997 7.9296 13.4997 7.00134C13.4997 6.07309 13.1309 5.18285 12.4745 4.52647C11.8182 3.87009 10.9279 3.50134 9.99966 3.50134C9.07141 3.50134 8.18117 3.87009 7.52479 4.52647C6.86841 5.18285 6.49966 6.07309 6.49966 7.00134C6.49966 7.9296 6.86841 8.81984 7.52479 9.47622C8.18117 10.1326 9.07141 10.5013 9.99966 10.5013Z" fill="#151718"/>
</g>
</svg>
