<svg width="18" height="16" viewBox="0 0 18 16" fill="none" xmlns="http://www.w3.org/2000/svg">
<path fill-rule="evenodd" clip-rule="evenodd" d="M4.80673 2.07062C4.80673 3.07237 4.05268 3.87393 2.84194 3.87393H2.81975C1.65402 3.87393 0.900391 3.07237 0.900391 2.07062C0.900391 1.04768 1.67697 0.268555 2.86483 0.268555C4.05268 0.268555 4.78419 1.04768 4.80673 2.07062ZM4.57974 5.2981V15.731H1.10742V5.2981H4.57974ZM17.1004 15.7313L17.1005 9.74943C17.1005 6.5449 15.3875 5.05347 13.1026 5.05347C11.259 5.05347 10.4336 6.06609 9.97273 6.77646V5.29873H6.5C6.54577 6.27769 6.5 15.7316 6.5 15.7316H9.97273V9.90502C9.97273 9.59322 9.99527 9.28217 10.0871 9.05893C10.338 8.43602 10.9094 7.79108 11.8687 7.79108C13.1257 7.79108 13.6282 8.74775 13.6282 10.1497V15.7313H17.1004Z" fill="#151718"/>
</svg>
