<svg width="23" height="16" viewBox="0 0 23 16" fill="none" xmlns="http://www.w3.org/2000/svg">
<path d="M22.0364 2.46408C21.7771 1.50017 21.0171 0.740326 20.0533 0.480774C18.2926 -0.000976562 11.2497 -0.000976562 11.2497 -0.000976562C11.2497 -0.000976562 4.20708 -0.000976562 2.44638 0.462509C1.50114 0.721786 0.722626 1.50031 0.463348 2.46408C0 4.22464 0 7.87581 0 7.87581C0 7.87581 0 11.5454 0.463348 13.2875C0.7229 14.2513 1.4826 15.0112 2.44652 15.2707C4.22562 15.7526 11.25 15.7526 11.25 15.7526C11.25 15.7526 18.2926 15.7526 20.0533 15.2891C21.0173 15.0297 21.7771 14.2698 22.0367 13.3061C22.4999 11.5454 22.4999 7.89435 22.4999 7.89435C22.4999 7.89435 22.5184 4.22464 22.0364 2.46408ZM9.00742 11.2489V4.50273L14.864 7.87581L9.00742 11.2489Z" fill="#151718"/>
</svg>
